<?xml version="1.0" encoding="UTF-8"?>
<svg id="_레이어_2" data-name="레이어 2" xmlns="http://www.w3.org/2000/svg" viewBox="0 0 200.34 292.15">
  <defs>
    <style>
      .cls-1 {
        fill: #fff;
      }

      .cls-2 {
        fill: #0b5ed7;
      }
    </style>
  </defs>
  <g id="_레이어_1-2" data-name="레이어 1">
    <g>
      <g>
        <path class="cls-2" d="M3.39,257.37v-7.18h17.46v-6.51h-7.89c-5.74,0-10.05-2.63-10.05-8.85s4.31-9.18,10.05-9.18h22.72c1.63,0,3.11-.72,3.11-2.49s-1.48-2.44-3.11-2.44H3.39v-6.98h34.92c5.74,0,9.57,3.88,9.57,9.14s-3.83,8.9-9.57,8.9H15.11c-1.87,0-3.11.67-3.11,2.44s1.24,2.49,3.11,2.49h32.29v6.98h-17.46v6.51h17.46v7.18H3.39Z"/>
        <path class="cls-2" d="M97.15,233.93v7.17h-35.4c-5.17,0-8.61-3.44-8.61-8.61v-18.75h44.01v7.18h-34.92v11.1c0,1.15.77,1.91,1.91,1.91h33.01ZM53.14,257.37v-7.18h44.01v7.18h-44.01Z"/>
        <path class="cls-2" d="M103.37,248.76c8.32-.77,16.36-7.7,16.36-15.93v-11.43h-15.88v-7.65h24.97v19.09c0,13.92-10.43,23.1-25.45,24.54v-8.61ZM134.94,213.74h9.09v16.6h4.78v7.65h-4.78v19.37h-9.09v-43.63Z"/>
        <path class="cls-2" d="M196.65,233.93v7.17h-35.4c-5.17,0-8.61-3.44-8.61-8.61v-18.75h44.01v7.18h-34.92v11.1c0,1.15.77,1.91,1.91,1.91h33.01ZM152.64,257.37v-7.18h44.01v7.18h-44.01Z"/>
      </g>
      <g>
        <path class="cls-2" d="M18.01,282.06l4.82,9.44h-5.81l-4.18-8.37h-7.32v8.37H0v-26.5h12.99c6.57,0,9.38,4.01,9.38,9.06,0,3.49-1.37,6.48-4.36,7.99ZM12.17,278.78c3.05,0,4.68-2.44,4.68-4.71s-1.63-4.71-4.68-4.71h-6.65v9.41h6.65Z"/>
        <path class="cls-2" d="M42.27,282.09c0,5.58-3.46,10.05-9.7,10.05s-9.7-4.47-9.7-10.05,3.46-10.05,9.7-10.05,9.7,4.47,9.7,10.05ZM36.75,282.09c0-3.34-1.66-5.69-4.18-5.69s-4.18,2.35-4.18,5.69,1.66,5.7,4.18,5.7,4.18-2.35,4.18-5.7Z"/>
        <path class="cls-2" d="M63.73,272.62v18.88h-5.23v-2.03c-1.42,1.63-3.52,2.61-6.25,2.61-4.91,0-8.66-4.5-8.66-10.02s3.75-10.02,8.66-10.02c2.56,0,4.53.84,5.96,2.29v-1.71h5.52ZM58.21,282.09c0-3.25-1.71-5.69-4.53-5.69s-4.56,2.44-4.56,5.69,1.8,5.7,4.56,5.7,4.53-2.44,4.53-5.7Z"/>
        <path class="cls-2" d="M85.92,265.01v26.5h-5.23v-2.03c-1.42,1.63-3.52,2.61-6.25,2.61-4.91,0-8.66-4.5-8.66-10.02s3.75-10.02,8.66-10.02c2.56,0,4.53.84,5.96,2.29v-9.33h5.52ZM80.4,282.09c0-3.25-1.71-5.69-4.53-5.69s-4.56,2.44-4.56,5.69,1.8,5.7,4.56,5.7,4.53-2.44,4.53-5.7Z"/>
        <path class="cls-2" d="M113.87,273.76c-1.22-2.99-3.63-4.97-7-4.97-4.85,0-7.84,4.15-7.84,9.47s2.99,9.5,7.84,9.5c4.59,0,7.5-3.25,7.5-6.8h-6.77v-4.36h12.2v3.78c0,6.86-5.67,11.74-12.93,11.74-8.25,0-13.36-6.01-13.36-13.86s5.11-13.83,13.36-13.83c6.57,0,11.1,3.84,12.72,9.33h-5.72Z"/>
        <path class="cls-2" d="M135.51,283.98v-11.36h5.52v11.65c0,4.71-3.43,7.81-9.44,7.81s-9.44-3.11-9.44-7.81v-11.65h5.52v11.36c0,2.24,1.63,3.75,3.92,3.75s3.92-1.51,3.92-3.75Z"/>
        <path class="cls-2" d="M163.22,272.62v18.88h-5.23v-2.03c-1.42,1.63-3.52,2.61-6.25,2.61-4.91,0-8.66-4.5-8.66-10.02s3.75-10.02,8.66-10.02c2.56,0,4.53.84,5.96,2.29v-1.71h5.52ZM157.7,282.09c0-3.25-1.71-5.69-4.53-5.69s-4.56,2.44-4.56,5.69,1.8,5.7,4.56,5.7,4.53-2.44,4.53-5.7Z"/>
        <path class="cls-2" d="M174.28,276.98c-2,0-2.76,1.05-2.76,3.05v11.48h-5.52v-11.33c0-4.94,2.32-7.55,6.97-7.55h6.48v4.36h-5.17Z"/>
        <path class="cls-2" d="M200.34,265.01v26.5h-5.23v-2.03c-1.42,1.63-3.52,2.61-6.25,2.61-4.91,0-8.66-4.5-8.66-10.02s3.75-10.02,8.66-10.02c2.56,0,4.53.84,5.96,2.29v-9.33h5.52ZM194.82,282.09c0-3.25-1.71-5.69-4.53-5.69s-4.56,2.44-4.56,5.69,1.8,5.7,4.56,5.7,4.53-2.44,4.53-5.7Z"/>
      </g>
      <g>
        <path class="cls-2" d="M169.46,57.98C162.4,19.53,125.14-5.91,86.57,1.19,53.07,7.34,28.57,36.9,28.52,74.08c.13,12.06,4.43,25.72,13.07,37.95,17.53,24.79,35.13,49.57,52.71,74.35,3.06,4.31,7.54,4.31,10.6.03,17.58-24.79,35.23-49.52,52.69-74.36,11.48-16.33,15.48-34.46,11.87-54.06Z"/>
        <circle class="cls-1" cx="99.73" cy="70.83" r="34.04"/>
        <path class="cls-1" d="M22.87,133.68S79.35,53.55,101.07,51.31c0,0,41.67,27.65,76.11,82.96l-22.38-8.65-54.55-8.87-52.66,8.09-24.71,8.85Z"/>
        <path class="cls-2" d="M22.76,133.72c11.13-7.83,23.85-12.79,36.91-16.3,39.18-10.38,82.38-3.74,117.26,16.59.38.22.51.72.29,1.1-.2.34-.61.48-.96.35-18.69-6.53-37.51-11.69-57.09-13.73-25.77-2.87-52.06-.5-76.86,7.14-6.21,1.91-12.41,4.17-18.28,6.88-1.22.67-2.52-1.1-1.28-2.03h0Z"/>
        <g>
          <polygon class="cls-2" points="102.43 76.83 97.02 76.83 98.27 67.93 101.18 67.93 102.43 76.83"/>
          <polygon class="cls-2" points="104.21 90.98 95.25 90.98 96.5 80.34 102.96 80.34 104.21 90.98"/>
          <polygon class="cls-2" points="106 110.04 93.46 110.04 95.33 95.57 104.12 95.57 106 110.04"/>
        </g>
        <g>
          <path class="cls-2" d="M89.47,68.33c-8.53,5.99-15.9,13.74-22.47,21.82-6.51,8.18-12.17,16.98-16.71,26.39,0,0-6.79-4.23-6.79-4.23,5.01-6.29,10.15-12.6,15.6-18.48,9.03-9.8,18.72-18.92,29.48-26.83,0,0,.89,1.33.89,1.33h0Z"/>
          <path class="cls-2" d="M111.05,67c12.88,9.49,24.36,20.74,34.82,32.83,3.52,4.05,6.88,8.25,10.26,12.48l-6.79,4.23c-4.54-9.41-10.2-18.21-16.71-26.39-6.57-8.08-13.94-15.82-22.47-21.82,0,0,.89-1.33.89-1.33h0Z"/>
        </g>
      </g>
    </g>
  </g>
</svg>