<?xml version="1.0" encoding="UTF-8"?>
<svg id="_레이어_2" data-name="레이어 2" xmlns="http://www.w3.org/2000/svg" viewBox="0 0 203.96 79.49">
  <defs>
    <style>
      .cls-1 {
        fill: #091d33;
      }
    </style>
  </defs>
  <g id="Layer_1" data-name="Layer 1">
    <g>
      <path class="cls-1" d="M160.86,0c-11.58,0-21.46,4.97-27.56,12.92-5.98-7.55-15.97-11.82-28.88-11.82h-60.15l-9.68,18.68L24.32,1.1H0l23.51,39.24v23.76h21.03v-23.76l14.54-24.23-11.46,47.99h21.44l8.78-36.69v36.69h26.58c12.9,0,22.9-4.27,28.88-11.82,6.1,7.95,15.98,12.92,27.56,12.92,19.76,0,34.1-13.71,34.1-32.6,0-18.89-14.34-32.6-34.1-32.6M99.35,18.52h3.91c9.24,0,14.33,4.97,14.33,13.99s-5.09,14.17-14.33,14.17h-3.91v-28.16ZM160.86,18.89c7.47,0,12.12,5.25,12.12,13.71s-4.64,13.71-12.12,13.71-12.11-5.25-12.11-13.71,4.64-13.71,12.11-13.71"/>
      <g>
        <path class="cls-1" d="M30.96,72.56c-.59-.55-1.4-.92-2.23-.92-.31,0-.7.17-.7.53,0,.46.78.58,1.11.66.55.14,1.19.35,1.65.67.73.52,1.11,1.39,1.11,2.27,0,2.32-2.33,3.71-4.44,3.71-1.48,0-2.75-.53-4.03-1.22l1.37-2.75c.61.75,1.57,1.21,2.55,1.21.37,0,.85-.14.85-.6,0-.49-.6-.62-.96-.72-.49-.12-.99-.23-1.45-.46-1.01-.5-1.46-1.4-1.46-2.5,0-2.23,2.11-3.65,4.18-3.65,1.42,0,2.56.38,3.8,1.05l-1.36,2.7Z"/>
        <path class="cls-1" d="M41.62,79.23c.12-1.95.2-3.91.55-5.83l-.14-.03c-.09.38-.18.76-.29,1.13-.17.56-.38,1.11-.61,1.65l-1.3,3.08h-2.32l-.4-3.22c-.08-.63-.12-1.25-.12-1.88,0-.26.02-.5.03-.76h-.12c-.26,1.98-.75,3.91-1.21,5.86h-3.74l2.96-10.18h3.91l.4,3.17c.05.38.08.75.08,1.13s-.03.75-.09,1.11h.15c.37-1.89,1.21-3.65,1.92-5.42h3.89l.03,10.18h-3.59Z"/>
        <path class="cls-1" d="M52.19,79.23l-.08-1.36h-2.5l-.49,1.36h-3.97l4.7-10.27h4.21l1.89,10.27h-3.77ZM51.68,72.99c0-.27.02-.53.05-.81h-.12c-.26,1.16-.73,2.26-1.14,3.37h1.4c-.08-.85-.18-1.71-.18-2.56Z"/>
        <path class="cls-1" d="M64.98,74.65c-.5.41-.89.5-1.51.6l2.21,3.98h-4l-.92-2.46c-.17-.44-.31-.9-.4-1.36h-.11c.02.26.02.5.02.75,0,1.02-.15,2.04-.27,3.07h-3.69l1.25-10.18h4.2c1.1,0,2.17.09,3.05.82.73.61,1.19,1.57,1.19,2.53,0,.85-.37,1.69-1.02,2.24ZM61.21,71.78h-.29l-.23,1.83h.3c.63,0,1.39-.26,1.39-1.01,0-.7-.59-.82-1.17-.82Z"/>
        <path class="cls-1" d="M73.39,72.26l-1.62-.11-.87,7.08h-3.74l.87-7.08-1.75.11.38-3.2h7.13l-.4,3.2Z"/>
        <path class="cls-1" d="M81.87,79.49c-3.05,0-5.6-1.89-5.6-5.11,0-3.39,2.61-5.58,5.91-5.58.78,0,1.56.12,2.29.38,1.34.47,1.91,1.05,2.7,2.2l-3.46,1.36c-.41-.53-.81-.85-1.51-.85-1.45,0-2.24,1.42-2.24,2.72,0,1.16.73,2.08,1.94,2.08.75,0,1.31-.34,1.63-1.02h-1.89l.29-2.35h5.57c.02.18.02.38.02.56,0,3.37-2.26,5.63-5.63,5.63Z"/>
        <path class="cls-1" d="M96.46,74.65c-.5.41-.88.5-1.51.6l2.21,3.98h-4l-.92-2.46c-.17-.44-.31-.9-.4-1.36h-.11c.02.26.02.5.02.75,0,1.02-.15,2.04-.27,3.07h-3.69l1.25-10.18h4.2c1.1,0,2.17.09,3.05.82.73.61,1.19,1.57,1.19,2.53,0,.85-.37,1.69-1.02,2.24ZM92.69,71.78h-.29l-.23,1.83h.31c.63,0,1.39-.26,1.39-1.01,0-.7-.6-.82-1.18-.82Z"/>
        <path class="cls-1" d="M105.44,71.71h-3.01l-.14,1.11h2.75l-.31,2.52h-2.75l-.14,1.16h3.11l-.34,2.73h-6.81l1.25-10.18h6.68l-.32,2.66Z"/>
        <path class="cls-1" d="M113.15,71.71h-3.01l-.14,1.11h2.75l-.31,2.52h-2.75l-.14,1.16h3.11l-.34,2.73h-6.81l1.25-10.18h6.68l-.32,2.66Z"/>
        <path class="cls-1" d="M123.58,79.23h-3.57l-1.77-3.51c-.09-.2-.18-.4-.27-.59-.24-.53-.41-1.1-.59-1.65h-.12c.05.41.06.81.06,1.22,0,.34-.01.69-.05,1.02l-.32,3.51h-3.71l1.25-10.18h3.71l1.8,3.83c.32.69.53,1.4.73,2.14l.15-.02c-.05-.58-.11-1.17-.11-1.75,0-.4.03-.79.06-1.19l.26-3.01h3.74l-1.25,10.18Z"/>
        <path class="cls-1" d="M136.74,75.13c-1.21,1.21-3.01,1.01-4.56,1.01l-.38,3.1h-3.69l1.25-10.18h4.24c1.05,0,2.06.11,2.93.78.82.64,1.28,1.68,1.28,2.7,0,.96-.4,1.92-1.07,2.59ZM133.09,71.71h-.38l-.23,1.89h.34c.73,0,1.4-.23,1.4-1.08,0-.72-.55-.81-1.13-.81Z"/>
        <path class="cls-1" d="M144.45,79.23h-6.87l1.25-10.18h3.74l-.87,7.11,3.13-.09-.38,3.16Z"/>
        <path class="cls-1" d="M151.44,79.23l-.08-1.36h-2.5l-.49,1.36h-3.97l4.7-10.27h4.21l1.89,10.27h-3.77ZM150.94,72.99c0-.27.02-.53.05-.81h-.12c-.26,1.16-.73,2.26-1.14,3.37h1.4c-.08-.85-.18-1.71-.18-2.56Z"/>
        <path class="cls-1" d="M162.52,72.26l-1.62-.11-.87,7.08h-3.74l.87-7.08-1.75.11.38-3.2h7.13l-.4,3.2Z"/>
        <path class="cls-1" d="M169.54,71.77h-2.81l-.14,1.11h2.62l-.34,2.69h-2.62l-.44,3.66h-3.69l1.25-10.18h6.5l-.34,2.72Z"/>
        <path class="cls-1" d="M175.26,79.49c-2.99,0-5.69-2.06-5.69-5.2s2.53-5.48,5.62-5.48c1.4,0,2.87.49,3.95,1.4,1.17.99,1.69,2.32,1.69,3.84,0,3.14-2.47,5.43-5.57,5.43ZM175.31,72.18c-1.16,0-2.01,1.01-2.01,2.14,0,1.05.7,1.97,1.8,1.97,1.22,0,2.03-.99,2.03-2.17,0-1.02-.75-1.94-1.82-1.94Z"/>
        <path class="cls-1" d="M189.76,74.65c-.5.41-.88.5-1.51.6l2.21,3.98h-4l-.92-2.46c-.17-.44-.31-.9-.4-1.36h-.11c.02.26.02.5.02.75,0,1.02-.15,2.04-.27,3.07h-3.69l1.25-10.18h4.2c1.1,0,2.17.09,3.05.82.73.61,1.19,1.57,1.19,2.53,0,.85-.37,1.69-1.02,2.24ZM186,71.78h-.29l-.23,1.83h.3c.63,0,1.39-.26,1.39-1.01,0-.7-.59-.82-1.17-.82Z"/>
        <path class="cls-1" d="M200.37,79.23c.12-1.95.2-3.91.55-5.83l-.14-.03c-.09.38-.18.76-.29,1.13-.17.56-.38,1.11-.61,1.65l-1.3,3.08h-2.32l-.4-3.22c-.08-.63-.12-1.25-.12-1.88,0-.26.01-.5.03-.76h-.12c-.26,1.98-.75,3.91-1.21,5.86h-3.74l2.96-10.18h3.91l.4,3.17c.05.38.08.75.08,1.13s-.03.75-.09,1.11h.15c.37-1.89,1.21-3.65,1.92-5.42h3.89l.03,10.18h-3.59Z"/>
      </g>
    </g>
  </g>
</svg>